mtllib materials.mtl
v 0.1789455 0.04376745 0.07959116
v 0.1317696 0.04612017 0.144158
v 0.1317527 0.05089974 0.1439716
v 0.1672757 0.1427727 0.0912466
v 0.1787015 0.1129258 0.07689273
v -0.1239754 0.03407693 -0.1413857
v -0.1251034 0.3538313 -0.1538618
v -0.1722794 0.3561842 -0.08929491
v -0.1711514 0.03642964 -0.0768187
v 0.1585183 0.04311395 0.06468987
v -0.107171 0.03461456 -0.129127
v 0.1778175 0.3635221 0.06711495
v 0.1306416 0.365875 0.1316818
v 0.1125907 0.3650355 0.1174819
v 0.1578275 0.3626206 0.05150044
v 0.1598685 0.3627126 0.05309474
v -0.1529288 0.3567724 -0.07597125
v -0.1448878 0.3670232 -0.07046998
v 0.1044795 0.3747697 0.1112003
v -0.104373 0.3544636 -0.1395316
v -0.09633195 0.3647144 -0.1340303
v -0.1032975 0.354497 -0.138748
v 0.1497163 0.3723547 0.04521883
v 0.1000321 0.3871522 0.1272984
v 0.1615617 0.3916831 0.03902197
v -0.05086428 0.5000007 -0.009485483
v -0.04500946 0.4781651 -0.01630974
v -0.0009997487 0.5008261 -0.07203925
v -0.1315889 0.4174469 -0.06179702
v -0.1344122 0.3973696 -0.06312835
v -0.08627129 0.3950477 -0.1269914
v -0.08386281 0.4151115 -0.1259627
v -0.1537813 0.3847415 -0.05938232
v -0.08855152 0.3867671 -0.1465659
v 0.08996616 0.4245346 0.09982431
v 0.06472105 0.4445913 0.09809077
v 0.1300355 0.4484 0.0112617
v 0.1360327 0.4221463 0.03444803
v 0.09293047 0.4046426 0.1027151
v 0.1385822 0.402241 0.03703618
v -0.1068683 0.0596118 -0.1298789
v -0.1034732 0.3399889 -0.1383117
v -0.0607388 0.4421599 -0.1277628
v -0.1244439 0.442292 -0.04494476
v 0.05113442 0.4707613 0.06976736
v 0.09782332 0.4683928 0.004845023
v 0.0259175 0.4660923 -0.04760933
v -0.04598832 0.4637921 -0.1000637
v -0.09309202 0.4661472 -0.0354439
v 0.01500291 0.4908414 0.04263604
v 0.06179553 0.4884763 -0.0222106
v 0.02584261 0.4873261 -0.04843783
v 0.1589176 0.1376369 0.06126058
v 0.1586164 0.06632924 0.06384766
v 0.1598039 0.347419 0.05364954
v 0.1404836 0.3333352 0.05278909
v 0.1394148 0.08035421 0.06196737
v -0.0964658 0.326648 -0.119976
v -0.09952137 0.07430863 -0.1123865
v 0.1784877 0.1735437 0.0745275
v 0.1562624 0.1407418 0.07871568
v -0.01360217 0.4775321 -0.06221962
vn 0.8076147 0.02583642 0.5891444
vn -0.8076149 -0.02583617 -0.5891442
vn 0.003525164 -0.9992335 0.03898735
vn -0.0110131 0.9989585 -0.04427863
vn -0.5897056 0.03158019 0.8070006
vn -0.5891922 0.02945387 0.8074559
vn -0.00352496 0.9992335 -0.03898802
vn -0.5645995 0.6877648 -0.4562972
vn 0.5891856 -0.02945921 -0.8074605
vn 0.5809703 0.7240365 0.3718127
vn 0.7736323 -0.3461868 0.530705
vn -0.7817752 -0.01479266 -0.6233848
vn -0.790377 0.1381014 -0.596852
vn -0.4910342 0.7886128 -0.3701016
vn 0.6082074 0.6530924 0.4511697
vn 0.8077866 0.1887918 0.5584251
vn 0.4663079 0.8183466 0.3359552
vn -0.7974061 -0.04422764 -0.6018202
vn 0.57871 -0.03069274 -0.8149557
vn -0.4280005 0.705568 0.5647916
vn 0.3320883 0.8124008 -0.4792936
vn 0.5062342 -0.5432791 -0.6697573
vn -0.4097716 -0.7047133 0.5791946
vn 0.5896999 -0.02941065 -0.8070868
vn -0.5896999 0.02941065 0.8070868
vn 0.5227013 -0.4937389 -0.6949859
vn -0.5241334 -0.4539094 0.7205904
vn 0.5002291 0.7797045 0.3766055
vn -0.6671242 0.5384497 -0.5147984
vn 0.4800659 0.550571 -0.6829411
vn -0.5371717 0.4574126 0.708675
vn 0.3460219 0.9130337 0.2159589
vn -0.4803993 0.7931067 -0.3744307
vn 0.5896998 -0.02941065 -0.8070868
vn -0.5896999 0.02941065 0.8070868
vn -0.1770907 0.9703576 -0.1644539
vn 0.1094438 0.9914503 0.07105228
vn -0.6057688 -0.3807666 0.6986136
vn 0.5795161 -0.2197279 -0.7847807
vn 0.5896999 -0.02941065 -0.8070868
vn 0.5927474 -0.03069164 -0.8048034
vn 0.5896959 -0.03158433 -0.8070076
vn 0.07097638 -0.03646473 -0.9968113
vn 0.5894328 -0.03451011 -0.80708
vn 0.4760118 -0.6145618 -0.6290681
vn 0.9283301 -0.02240212 -0.3710814
vn 0.4776028 0.5635163 -0.6740512
vn 0.5895616 -0.03159374 -0.8071053
vn 0.6070822 -0.03021455 -0.7940644
vn 0.7785193 0.6275839 0.006791476
vn 0.807615 0.02583606 0.5891439
vn 0.5971365 0.5216429 -0.6093576
vn 0.6793993 -0.5256964 -0.511918
vn 0.8205576 -0.5280468 0.2187507
vn -0.8069136 0.2026722 -0.5548103
vn -0.2182609 0.9622522 -0.1625821
vn 0.393966 -0.5297661 -0.7510916
vn -0.1670005 0.963967 -0.2070715
vn -0.2657919 0.9619209 0.06374153
vt 0.32385 0.04324506
vt 0.3279193 0.03635737
vt 0.3283312 0.03660068
vt 0.3333085 0.04660319
vt 0.3298088 0.04676563
vt -0.32385 0.04324516
vt -0.3514008 0.05952258
vt -0.3554701 0.0526349
vt -0.3279194 0.03635746
vt 0.1391971 -0.0577492
vt 0.1371316 -0.05920906
vt 0.1102664 -0.07819696
vt 0.1085672 -0.07939791
vt 0.1131846 -0.08593088
vt 0.1438145 -0.06428216
vt -0.1418584 -0.05544931
vt -0.1464989 -0.06196585
vt -0.1445794 -0.06322961
vt -0.1397432 -0.05685233
vt -0.1399592 -0.05670908
vt 0.1785903 0.2547063
vt 0.2026982 0.2259719
vt 0.2272128 0.2465394
vt 0.225703 0.2483393
vt 0.2045642 0.2735004
vt 0.2031049 0.2752739
vt 0.1789567 0.2550137
vt 0.2054485 0.2731672
vt 0.2265315 0.2479593
vt 0.226658 0.2493678
vt 0.2068571 0.2730407
vt -0.1150663 -0.08452274
vt -0.1131848 -0.08593097
vt -0.1085674 -0.079398
vt -0.1105884 -0.07789117
vt -0.2906227 0.07849948
vt -0.2853058 0.08447947
vt -0.2863484 0.08543503
vt -0.2916652 0.07945504
vt -0.2264194 0.2480928
vt -0.226334 0.2481949
vt -0.2056 0.2729854
vt -0.2070085 0.2728589
vt -0.2265459 0.2495014
vt 0.1685547 -0.1481116
vt 0.1677186 -0.1560714
vt 0.1691279 -0.1561892
vt 0.169964 -0.1482294
vt 0.3461038 0.1125538
vt 0.3481434 0.112159
vt 0.341797 0.1208601
vt 0.3409441 0.1186717
vt -0.3671294 0.06019948
vt -0.3647818 0.05994403
vt -0.3633755 0.06726412
vt -0.3583439 0.08364885
vt -0.3566749 0.08249025
vt -0.3521294 0.08907445
vt -0.3537918 0.09022775
vt -0.2649089 0.06405798
vt -0.2644924 0.06176025
vt -0.2574385 0.07005535
vt -0.2595678 0.07001228
vt 0.2158362 -0.1266365
vt 0.2187359 -0.1280241
vt 0.2190622 -0.1171613
vt 0.2158456 -0.118641
vt 0.348154 0.01236558
vt 0.3499893 0.01323704
vt 0.3465796 0.02047526
vt 0.3447514 0.01960833
vt 0.1071503 -0.1562058
vt 0.1100943 -0.1552761
vt 0.1118998 -0.147485
vt 0.1100023 -0.145824
vt -0.3580615 0.04790363
vt -0.3558293 0.04832259
vt -0.3518575 0.05526904
vt -0.3531145 0.05760546
vt -0.2062524 0.2226426
vt -0.2049317 0.2242502
vt -0.2068354 0.2258722
vt -0.2281884 0.2440653
vt -0.2292933 0.2450067
vt -0.2293778 0.2449039
vt -0.230978 0.2429562
vt 0.04342998 0.1511808
vt 0.04328059 0.1535136
vt 0.01952048 0.1686084
vt 0.01657403 0.1676582
vt -0.2821264 -0.1079018
vt -0.2823103 -0.1104247
vt -0.2661399 -0.1330884
vt -0.2640164 -0.1332441
vt -0.06134965 0.2241816
vt -0.06210591 0.2264064
vt -0.08796562 0.2090424
vt -0.08641496 0.2068896
vt 0.3171003 -0.09529465
vt 0.319146 -0.09625183
vt 0.3319393 -0.0674588
vt 0.3298897 -0.0672081
vt -0.2100011 0.2739477
vt -0.2117325 0.2749949
vt -0.2291951 0.2541046
vt -0.2278575 0.2525863
vt 0.2279342 0.2524947
vt 0.2292388 0.2540523
vt 0.2116443 0.2751003
vt 0.2098801 0.2740925
vt -0.07808923 0.2387886
vt -0.08132614 0.2402551
vt -0.1005354 0.2265213
vt -0.1002502 0.2229696
vt 0.3591016 0.06742527
vt 0.3616111 0.0691981
vt 0.3601418 0.09286742
vt 0.3575825 0.09481491
vt 0.1432962 -0.1504487
vt 0.1472903 -0.1496258
vt 0.1485456 -0.1417301
vt 0.1452571 -0.1397592
vt -0.3235625 0.1025857
vt -0.3207081 0.1014128
vt -0.3154379 0.1074319
vt -0.3169365 0.1106645
vt -0.358428 0.02757238
vt -0.3605232 0.02434821
vt -0.3593779 0.0155187
vt -0.3582326 0.006689181
vt -0.3553853 0.004155349
vt 0.1057947 0.2310251
vt 0.1047469 0.2349389
vt 0.09032225 0.2454672
vt 0.08633227 0.2445781
vt 0.0295297 -0.1576009
vt 0.03414444 -0.1593763
vt 0.03705705 -0.1519252
vt 0.03245314 -0.1501539
vt -0.2710956 0.06656469
vt -0.2688909 0.06316452
vt -0.2621087 0.07111263
vt -0.2656775 0.07245056
vt -0.2183979 0.2744273
vt -0.2228835 0.2723746
vt -0.2257386 0.268959
vt -0.2241082 0.2675961
vt 0.2298127 0.2607719
vt 0.222853 0.272411
vt 0.2183592 0.2744736
vt -0.1858913 -0.02136506
vt -0.1826885 -0.02560383
vt -0.1776198 -0.0194145
vt -0.07525317 -0.1038465
vt -0.06785517 -0.1079241
vt -0.0640081 -0.1009121
vt -0.07111277 -0.09700353
vt 0.3488641 0.133926
vt 0.3511736 0.1344186
vt 0.3484706 0.1424238
vt -0.1641801 0.2767949
vt -0.1710573 0.2724948
vt -0.1674616 0.2737866
vt -0.2257386 0.268959
vt -0.2298185 0.260765
vt -0.2241082 0.2675962
vt -0.1794949 0.2535705
vt -0.1778653 0.2555049
vt -0.1831587 0.2599639
vt -0.1866807 0.259721
vt -0.1812597 0.2550811
vt -0.2013759 0.2275745
vt -0.1802312 0.2527773
vt -0.1819991 0.2542844
vt -0.2032629 0.2292161
vt -0.2698205 0.1388966
vt -0.2761198 0.1422486
vt -0.2946516 0.1521099
vt -0.2943117 0.1497417
vt -0.2719638 0.1378498
vt -0.202549 0.2727011
vt -0.2037114 0.2736964
vt -0.2038766 0.2734969
vt -0.2247195 0.2487979
vt -0.2236264 0.2478428
vt -0.0414352 0.2026733
vt -0.0686413 0.1847284
vt -0.06633537 0.1841666
vt -0.04184989 0.2003171
vt 0.0682492 0.3402639
vt 0.07101624 0.3123482
vt 0.07279713 0.3139569
vt 0.07030679 0.339081
vt -0.3234057 -0.005178738
vt -0.3283289 0.02732256
vt -0.3298034 0.02544765
vt -0.3253725 -0.003803513
vt -0.184168 0.2539102
vt -0.2034347 0.270331
vt -0.222353 0.2479151
vt -0.2033029 0.2313466
vt -0.1829067 0.2679836
vt -0.1972887 0.2804186
vt -0.1987641 0.2786818
vt -0.1976143 0.2776719
vt -0.1818425 0.2638183
vt 0.1352167 -0.2520292
vt 0.1381083 -0.2541375
vt 0.1387217 -0.2524529
vt 0.3283312 0.03660077
vt 0.3554702 0.05263492
vt 0.3514008 0.0595226
vt 0.3350318 0.04985156
vt 0.3333085 0.04660329
vt -0.3362025 0.03802065
vt -0.3357137 0.0364127
vt -0.3327162 0.03836738
vt 0.02986453 0.2411748
vt 0.0281026 0.2444023
vt 0.02835983 0.2404263
vt 0.2711341 0.1546154
vt 0.2724981 0.1583589
vt 0.2694772 0.1552999
vt -0.3590437 0.1026475
vt -0.3557554 0.1071345
vt -0.3568044 0.1097572
vt -0.1807581 -0.005649217
vt -0.1853949 -0.003369207
vt -0.1890353 -0.007575476
vt -0.1284602 0.197552
vt -0.1271711 0.1950387
vt -0.1247884 0.198608
vt -0.1975894 -0.01743167
vt -0.1951924 -0.02099141
vt -0.1905777 -0.02331587
vt -0.1169788 0.01929758
vt -0.1203795 0.02337923
vt -0.1279334 0.02729164
o group172375576
g mesh172375576
usemtl mat22
f 5/5/1 4/4/1 3/3/1 2/2/1 1/1/1
f 9/9/2 8/8/2 7/7/2 6/6/2
f 2/15/3 9/14/3 6/13/3 11/12/3 10/11/3 1/10/3
f 16/20/4 15/19/4 14/18/4 13/17/4 12/16/4
f 3/27/5 13/26/5 14/25/5 17/24/5 8/23/5 9/22/5 2/21/5
f 19/31/6 18/30/6 17/29/6 14/28/6
f 20/35/7 7/34/7 8/33/7 17/32/7
f 18/39/8 21/38/8 20/37/8 17/36/8
f 21/44/9 23/43/9 15/42/9 22/41/9 20/40/9
f 23/48/10 19/47/10 14/46/10 15/45/10
f 23/52/11 25/51/11 24/50/11 19/49/11
f 28/55/12 27/54/12 26/53/12
f 32/59/13 31/58/13 30/57/13 29/56/13
f 31/63/14 34/62/14 33/61/14 30/60/14
f 38/67/15 37/66/15 36/65/15 35/64/15
f 40/71/16 38/70/16 35/69/16 39/68/16
f 25/75/17 40/74/17 39/73/17 24/72/17
f 34/79/18 21/78/18 18/77/18 33/76/18
f 7/86/19 20/85/19 22/84/19 42/83/19 41/82/19 11/81/19 6/80/19
f 24/90/20 39/89/20 30/88/20 33/87/20
f 34/94/21 31/93/21 40/92/21 25/91/21
f 21/98/22 34/97/22 25/96/22 23/95/22
f 19/102/23 24/101/23 33/100/23 18/99/23
f 31/106/24 32/105/24 38/104/24 40/103/24
f 39/110/25 35/109/25 29/108/25 30/107/25
f 32/114/26 43/113/26 37/112/26 38/111/26
f 35/118/27 36/117/27 44/116/27 29/115/27
f 37/122/28 46/121/28 45/120/28 36/119/28
f 43/126/29 32/125/29 29/124/29 44/123/29
f 43/131/30 48/130/30 47/129/30 46/128/30 37/127/30
f 36/135/31 45/134/31 49/133/31 44/132/31
f 46/139/32 51/138/32 50/137/32 45/136/32
f 48/143/33 43/142/33 44/141/33 49/140/33
f 47/147/34 52/146/34 51/145/34 46/144/34
f 45/150/35 50/149/35 49/148/35
f 48/153/36 49/152/36 27/151/36
f 51/157/37 28/156/37 26/155/37 50/154/37
f 50/160/38 26/159/38 27/158/38
f 52/163/39 28/162/39 51/161/39
f 47/166/40 48/165/40 52/164/40
f 54/171/41 53/170/41 5/169/41 1/168/41 10/167/41
f 41/175/42 54/174/42 10/173/42 11/172/42
f 57/180/43 56/179/43 55/178/43 53/177/43 54/176/43
f 42/185/44 22/184/44 15/183/44 16/182/44 55/181/44
f 56/189/45 58/188/45 42/187/45 55/186/45
f 58/193/46 59/192/46 41/191/46 42/190/46
f 59/197/47 57/196/47 54/195/47 41/194/47
f 59/201/48 58/200/48 56/199/48 57/198/48
f 53/206/49 55/205/49 16/204/49 12/203/49 60/202/49
f 53/209/50 61/208/50 5/207/50
f 4/214/51 60/213/51 12/212/51 13/211/51 3/210/51
f 5/217/52 61/216/52 4/215/52
f 61/220/53 60/219/53 4/218/53
f 53/223/54 60/222/54 61/221/54
f 28/226/55 62/225/55 27/224/55
f 27/229/56 62/228/56 48/227/56
f 52/232/57 62/231/57 28/230/57
f 48/235/58 62/234/58 52/233/58
f 50/238/59 27/237/59 49/236/59
